<svg width="512" height="512" viewBox="0 0 512 512" fill="none" xmlns="http://www.w3.org/2000/svg">
<rect width="512" height="512" rx="60" fill="#151515"/>
<path d="M256 128C186.4 128 128 186.4 128 256C128 325.6 186.4 384 256 384C325.6 384 384 325.6 384 256C384 186.4 325.6 128 256 128ZM256 341.4C208.6 341.4 170.6 303.4 170.6 256C170.6 208.6 208.6 170.6 256 170.6C303.4 170.6 341.4 208.6 341.4 256C341.4 303.4 303.4 341.4 256 341.4Z" fill="hsl(217.2 91.2% 59.8%)"/>
<path d="M256 213.4C232.4 213.4 213.4 232.4 213.4 256C213.4 279.6 232.4 298.6 256 298.6C279.6 298.6 298.6 279.6 298.6 256C298.6 232.4 279.6 213.4 256 213.4Z" fill="hsl(217.2 91.2% 59.8%)"/>
</svg>
